{"title":"Dark Tranquility - Monochromatic Stains By Haunting Summer","uid":6336892,"size":38346000,"categoryP":"video","categoryS":"music_videos","magnet":"?xt=urn:btih:20f984c130f81e7313ecaedad68ca4a6ada01402&amp;dn=Dark+Tranquility+-+Monochromatic+Stains+By+Haunting+Summer&amp;tr=udp%3A%2F%2Ftracker.openbittorrent.com%3A80&amp;tr=udp%3A%2F%2Fopen.demonii.com%3A1337&amp;tr=udp%3A%2F%2Ftracker.coppersurfer.tk%3A6969&amp;tr=udp%3A%2F%2Fexodus.desync.com%3A6969","seeders":0,"leechers":0,"uploader":"HaUnTiNg.SuMMeR","files":-1,"time":1303506107,"description":"===== CELEBRATING ROCKANTHROLOGY ENJOY MY FAVORITE ALL TIME ROCK VIDEOS =====\n\n============= DARK TRANQUILITY MONOCHROMATIC STAINS ========================\n\nDark Tranquility is a Swedish melodic death metal band from Gothenburg. They are one of the longest-standing bands from the original Gothenburg metal scene, and are one of the most integral pioneers of the melodic death metal genre of music\n================================================================================\nGenres \tMelodic death metal\nReleased \tJuly 22, 2002\n================================================================================ \n\nFormat                           : MPEG-PS\nFile size                        : 36.6 MiB\nDuration                         : 3mn 39s\nOverall bit rate                 : 1 396 Kbps\nWriting library                  : encoded by TMPGEnc (ver. 2.55.38.142)\n\nVideo\nID                               : 224 (0xE0)\nFormat                           : MPEG Video\nFormat version                   : Version 1\nFormat settings, BVOP            : Yes\nFormat settings, Matrix          : Default\nDuration                         : 3mn 39s\nBit rate mode                    : Constant\nBit rate                         : 1 150 Kbps\nWidth                            : 352 pixels\nHeight                           : 288 pixels\nDisplay aspect ratio             : 4:3\nFrame rate                       : 25.000 fps\nStandard                         : PAL\nColor space                      : YUV\nBit depth                        : 8 bits\nScan type                        : Progressive\nBits/(Pixel*Frame)               : 0.454\nStream size                      : 30.0 MiB (82%)\nWriting library                  : TMPGEnc 2.55.38.142\n\nAudio\nID                               : 192 (0xC0)\nFormat                           : MPEG Audio\nFormat version                   : Version 1\nFormat profile                   : Layer 2\nDuration                         : 3mn 39s\nBit rate mode                    : Constant\nBit rate                         : 224 Kbps\nChannel(s)                       : 2 channels\nSampling rate                    : 44.1 KHz\nStream size                      : 5.87 MiB (16%)\n\n=============================================================================\n\n                      &lt;a href=&quot; http://bayimg.com/jAhfOaaDL&quot; rel=&quot;nofollow&quot; target=&quot;_NEW&quot;&gt; http://bayimg.com/jAhfOaaDL&lt;/a&gt;\n\n==============================================================================\n\n===========================================================================\n\n===========================================================================\n  \nI URGE TO ALL D/L PLEASE HIT ON QUALITY +/- AND LEAVE COMMENTS IF POSSIBLE \n\n=============================================================================\n\n========================== HAUNTING SUMMER ==================================\n\t\t","torrent":{"xt":"urn:btih:20f984c130f81e7313ecaedad68ca4a6ada01402","amp;dn":"Dark+Tranquility+-+Monochromatic+Stains+By+Haunting+Summer","amp;tr":["udp%3A%2F%2Ftracker.openbittorrent.com%3A80","udp%3A%2F%2Fopen.demonii.com%3A1337","udp%3A%2F%2Ftracker.coppersurfer.tk%3A6969","udp%3A%2F%2Fexodus.desync.com%3A6969"],"infoHash":"20f984c130f81e7313ecaedad68ca4a6ada01402","infoHashBuffer":{"type":"Buffer","data":[32,249,132,193,48,248,30,115,19,236,174,218,214,140,164,166,173,160,20,2]},"announce":[],"urlList":[]}}